<svg xmlns="http://www.w3.org/2000/svg" viewBox="0 0 1000 1000"><path d="M866 824q8-4 14-2t6 10-8 18q-7 9-25 25t-53 38-79 41-105 32-128 14q-66 0-132-17t-117-43-96-58-74-59-47-48q-5-6-6-10t1-6 4-4 7-1 6 2q107 65 168 93 217 98 445 50 106-22 219-75zm115-65q6 9 1 39t-15 58q-19 46-48 69-9 8-14 5t0-14q11-25 24-68t4-55q-3-3-9-6t-15-3-16-2-20 0-17 1-18 2-12 1q-3 1-7 1t-6 1-5 0-4 0h-7l-1-1-1-1q-4-9 26-23t57-16q26-4 61-1t42 13zM761 512q0 18 8 36t18 32 21 26 18 18l7 6-126 125q-23-21-45-42t-32-33l-11-11q-6-6-13-18-22 33-55 57t-71 35-78 13-77-12-65-36-47-63-17-91q0-47 16-86t40-65 59-46 69-32 72-19 67-11 55-3v-71q0-36-11-54-19-30-68-30-3 0-9 1t-23 6-31 17-31 33-27 54l-164-15q0-34 12-67t38-63 60-53 84-36T511 0q55 0 101 14t72 34 45 47 25 48 7 41v328zm-375 12q0 48 39 74 37 25 78 12 47-14 63-68 8-25 8-57v-90q-33 1-62 7t-59 18-49 40-18 64z"/></svg>