<svg xmlns="http://www.w3.org/2000/svg" viewBox="0 0 1285.7 1000"><path d="M918 613q0-33-19-60t-49-38q-3 25-12 51-4 14-16 22t-25 7q-6 0-13-1-17-6-25-22t-2-32q13-40 13-80 0-69-34-127t-93-93-127-34q-75 0-138 41t-93 108q60 16 105 60 12 12 12 30t-12 30-31 13-30-13q-42-41-101-41t-101 41-42 101 42 101 101 41h584q44 0 75-31t31-74zm85 0q0 79-56 135t-135 56H228q-94 0-161-67T0 576q0-86 56-149t139-76q34-103 123-166t198-64q131 0 228 88t109 218q65 14 108 66t42 120zm140 0q0 97-54 178-13 18-36 18-13 0-24-7-14-10-18-27t7-32q40-58 40-130t-40-130q-10-15-7-32t18-28 32-6 28 18q54 79 54 178zm143 0q0 136-75 247-13 19-36 19-13 0-23-7-15-10-18-28t6-32q60-91 60-199 0-109-60-200-10-14-6-32t18-27q14-10 32-6t27 18q75 111 75 247z"/></svg>