<svg xmlns="http://www.w3.org/2000/svg" viewBox="0 0 1285.7 1000"><path d="M438 766l8-135-8-292q-1-5-5-9t-9-4q-5 0-9 4t-4 9l-7 292 7 135q1 5 5 9t8 3q12 0 14-12zm165-17l6-117-7-327q0-9-7-14-5-3-9-3t-9 3q-7 5-7 14l-1 3-5 323q0 1 6 132 0 6 3 10 5 6 13 6 6 0 11-5 5-4 5-11zM20 560l11 71-11 70q-2 5-5 5t-5-5L0 631l10-71q1-5 5-5t5 5zm48-44l14 115-14 113q-2 5-6 5-5 0-5-5L44 631l13-115q0-5 5-5 4 0 6 5zm156 252zM119 494l14 137-14 132q0 6-6 6t-7-6L94 631l12-137q1-6 7-6t6 6zm52-4l13 141-13 136q-1 8-7 8-8 0-8-8l-11-136 11-141q0-7 8-7 6 0 7 7zm53 11l12 130-12 137q-1 9-9 9-3 0-6-2t-2-7l-12-137 12-130q0-4 2-6t6-3q8 0 9 9zm214 265zM276 419l12 212-12 137q0 4-3 7t-6 3q-9 0-10-10l-10-137 10-212q1-10 10-10 4 0 6 3t3 7zm53-48l10 261-10 136q0 5-3 8t-8 3q-10 0-11-11l-9-136 9-261q1-11 11-11 5 0 8 4t3 7zm54-22l10 282-10 135q-1 12-12 12-10 0-12-12l-9-135 9-282q0-5 4-9t8-4q5 0 9 4t3 9zm219 414zM492 346l8 285-8 133q0 6-5 10t-9 4-10-3-4-11l-8-133 8-285q0-6 4-10t10-3 9 3 5 10zm55 11l8 275-8 131q0 6-5 11t-10 4-11-4-5-11l-6-131 6-275q1-7 5-11t11-5 10 5 5 11zm118 275l-8 129q0 7-5 12t-12 5-12-5-6-12l-3-64-3-65 6-355v-2q1-8 7-13 5-4 11-4 5 0 8 3 8 4 9 14zm621-11q0 65-47 111t-111 46H689q-7-1-12-6t-5-12V258q0-13 16-18 47-19 101-19 108 0 188 73t89 181q30-12 62-12 65 0 111 46t47 112z"/></svg>