<svg xmlns="http://www.w3.org/2000/svg" viewBox="0 0 857.1 1000"><path d="M542 694v118q0 37-22 37-13 0-25-12V669q12-12 25-12 22 0 22 37zm189 1v25h-51v-25q0-38 25-38t26 38zM191 573h60v-52H77v52h59v318h55V573zm161 318h50V615h-50v211q-17 23-32 23-10 0-11-11-1-2-1-20V615h-50v218q0 28 5 41 7 21 32 21 27 0 57-34v30zm240-83V698q0-41-5-55-10-31-40-31-28 0-52 30V521h-50v370h50v-27q25 31 52 31 30 0 40-31 5-15 5-56zm188-6v-7h-51q0 29-1 34-4 20-22 20-26 0-26-38v-49h100v-57q0-44-15-65-22-28-59-28-38 0-60 28-15 21-15 65v96q0 44 16 65 22 29 60 29 40 0 60-30 10-15 12-30 1-5 1-33zM441 293V176q0-39-24-39t-24 39v117q0 39 24 39t24-39zm401 419q0 131-14 195-8 33-33 56t-57 25q-102 12-309 12t-310-12q-32-3-57-25t-32-56q-15-62-15-195 0-131 15-195 7-33 32-56t57-26q103-11 310-11t309 11q33 4 58 26t32 56q14 62 14 195zM285 0h57l-67 223v151h-56V223q-8-42-34-119-21-57-37-104h60l39 147zm207 186v97q0 46-16 66-21 29-59 29-37 0-59-29-15-21-15-66v-97q0-45 15-66 22-28 59-28 38 0 59 28 16 21 16 66zm187-91v279h-51v-31q-30 35-58 35-25 0-33-21-4-13-4-42V95h51v225q2 12 12 12 15 0 32-24V95h51z"/></svg>